<?xml version="1.0" encoding="utf-8"?><svg viewBox="0 0 24 40" xmlns="http://www.w3.org/2000/svg" xmlns:xlink="http://www.w3.org/1999/xlink"><style>:root>svg{display:none}:root>svg:target{display:block}</style><svg fill="none" viewBox="0 0 16 31" id="arrows-center" xmlns="http://www.w3.org/2000/svg"><path stroke="#E6E6E6" stroke-width="2" d="M1.073 29.942 15.101 1.181"/></svg><svg viewBox="0 0 20 20" id="arrows-left" xmlns="http://www.w3.org/2000/svg"><path d="M14.306 18.333 5.972 10l8.334-8.333 1.479 1.479L8.93 10l6.854 6.854-1.48 1.48z" fill="#E6E6E6"/></svg><svg viewBox="0 0 20 20" id="arrows-right" xmlns="http://www.w3.org/2000/svg"><path d="m6.687 18.333-1.479-1.479L12.062 10 5.208 3.146l1.48-1.48L15.02 10l-8.334 8.333z" fill="#E6E6E6"/></svg><svg viewBox="0 0 24 24" id="close" xmlns="http://www.w3.org/2000/svg"><path d="M6.4 19 5 17.6l5.6-5.6L5 6.4 6.4 5l5.6 5.6L17.6 5 19 6.4 13.4 12l5.6 5.6-1.4 1.4-5.6-5.6L6.4 19z"/></svg><svg viewBox="0 0 4 24" id="dots-false" xmlns="http://www.w3.org/2000/svg"><path fill="#E6E6E6" d="M0 0h4v24H0z"/></svg><svg fill="none" viewBox="0 0 4 40" id="dots-true" xmlns="http://www.w3.org/2000/svg"><path fill="#4F8FF0" d="M0 0h4v40H0z"/></svg><svg viewBox="0 0 20 20" id="mail" xmlns="http://www.w3.org/2000/svg"><path d="M3.333 16.667c-.458 0-.85-.164-1.177-.49A1.602 1.602 0 0 1 1.666 15V5c0-.458.164-.85.49-1.178.327-.326.72-.49 1.177-.489h13.334c.458 0 .85.164 1.177.49.327.327.49.72.49 1.177v10c0 .458-.164.85-.49 1.177-.328.327-.72.49-1.178.49H3.333zM10 10.833 3.333 6.667V15h13.334V6.667L10 10.833zm0-1.666L16.666 5H3.333L10 9.167zm-6.667-2.5V5v10-8.333z"/></svg><svg viewBox="0 0 24 24" id="menu" xmlns="http://www.w3.org/2000/svg"><path d="M3 4h18v2H3V4zm6 7h12v2H9v-2zm-6 7h18v2H3v-2z"/></svg><svg viewBox="0 0 20 20" id="phone" xmlns="http://www.w3.org/2000/svg"><path d="M13.333.833H6.666a2.497 2.497 0 0 0-2.5 2.5v13.334c0 1.383 1.117 2.5 2.5 2.5h6.667c1.383 0 2.5-1.117 2.5-2.5V3.333c0-1.383-1.117-2.5-2.5-2.5zM14.166 15H5.833V3.333h8.333V15zm-2.5 2.5H8.333v-.833h3.333v.833z"/></svg></svg>